<?xml version="1.0" encoding="utf-8"?>
<!-- Generator: Adobe Illustrator 18.1.1, SVG Export Plug-In . SVG Version: 6.00 Build 0)  -->
<svg version="1.1" id="Calque_1" xmlns="http://www.w3.org/2000/svg" xmlns:xlink="https://www.w3.org/1999/xlink" x="0px" y="0px"
	 viewBox="0 0 16 16" enable-background="new 0 0 16 16" xml:space="preserve">
<rect fill="#E3533D" width="16" height="16"/>
<g>
	<path fill="#FFFFFF" d="M3.2,5.4c0-0.3,0.1-0.6,0.2-0.9S3.6,4,3.8,3.9C4,3.7,4.3,3.6,4.5,3.5S5,3.3,5.2,3.3c0.2,0,0.5,0,0.7,0.1
		s0.5,0.2,0.7,0.4C6.8,4,7,4.3,7.1,4.5c0.1,0.3,0.2,0.6,0.2,0.9v4.5c0,0.4-0.1,0.7-0.2,0.9c-0.1,0.3-0.3,0.5-0.5,0.6
		c-0.2,0.2-0.4,0.3-0.7,0.4S5.5,12,5.2,12c-0.2,0-0.5,0-0.7-0.1S4,11.7,3.8,11.5c-0.2-0.2-0.4-0.4-0.5-0.6s-0.2-0.6-0.2-0.9V5.4z
		 M4.4,9.9c0,0.3,0.1,0.5,0.2,0.7c0.2,0.1,0.4,0.2,0.6,0.2c0.2,0,0.4-0.1,0.6-0.2c0.2-0.1,0.2-0.4,0.2-0.7V5.4
		c0-0.3-0.1-0.5-0.2-0.7C5.7,4.6,5.5,4.6,5.2,4.6C5,4.6,4.8,4.6,4.7,4.8C4.5,4.9,4.4,5.1,4.4,5.4V9.9z"/>
	<path fill="#FFFFFF" d="M8.3,3.4h1.2l1.8,5.1h0V3.4h1.2V12h-1.2L9.6,6.8h0V12H8.3V3.4z"/>
</g>
</svg>
