<?xml version="1.0" standalone="no"?>
<!DOCTYPE svg PUBLIC "-//W3C//DTD SVG 1.1//EN" "http://www.w3.org/Graphics/SVG/1.1/DTD/svg11.dtd" >
<svg xmlns="http://www.w3.org/2000/svg">
<metadata>
<json>
<![CDATA[
{
	"fontFamily": "atlantico",
	"majorVersion": 1,
	"minorVersion": 0,
	"fontURL": "https://www.atlantico.fr",
	"description": "Font Icon for Atlantico\nFont generated by IcoMoon.",
	"designer": "Yaqian ZHOU",
	"version": "Version 1.0",
	"fontId": "atlantico",
	"psName": "atlantico",
	"subFamily": "Regular",
	"fullName": "atlantico"
}
]]>
</json>
</metadata>
<defs>
<font id="atlantico" horiz-adv-x="1024">
<font-face units-per-em="1024" ascent="960" descent="-64" />
<missing-glyph horiz-adv-x="1024" />
<glyph unicode="&#x20;" horiz-adv-x="512" d="" />
<glyph unicode="&#xe900;" glyph-name="search" data-tags="search" d="M684.416 262.144c-1.451-1.109-2.859-2.347-4.224-3.712s-2.56-2.731-3.712-4.224c-53.675-51.755-126.677-83.541-207.147-83.541-82.475 0-157.099 33.365-211.2 87.467s-87.467 128.725-87.467 211.2 33.365 157.099 87.467 211.2 128.725 87.467 211.2 87.467 157.099-33.365 211.2-87.467 87.467-128.725 87.467-211.2c0-80.469-31.787-153.472-83.584-207.189zM926.165 72.832l-156.8 156.8c52.523 65.707 83.968 149.035 83.968 239.701 0 106.027-43.008 202.069-112.469 271.531s-165.504 112.469-271.531 112.469-202.069-43.008-271.531-112.469-112.469-165.504-112.469-271.531 43.008-202.069 112.469-271.531 165.504-112.469 271.531-112.469c90.667 0 173.995 31.445 239.701 83.968l156.8-156.8c16.683-16.683 43.691-16.683 60.331 0s16.683 43.691 0 60.331z" />
<glyph unicode="&#xe901;" glyph-name="play" data-tags="play" horiz-adv-x="764" d="M0-60.399v974.419c0 19.775 22.354 31.525 38.69 20.348l714.765-487.21c14.33-9.744 14.33-30.952 0-40.696l-714.765-487.21c-16.336-11.177-38.69 0.573-38.69 20.348z" />
<glyph unicode="&#xe902;" glyph-name="calendar" data-tags="calendar" d="M298.667 853.334v-42.667h-85.333c-35.333 0-67.467-14.4-90.533-37.467s-37.467-55.2-37.467-90.533v-597.333c0-35.333 14.4-67.467 37.467-90.533s55.2-37.467 90.533-37.467h597.333c35.333 0 67.467 14.4 90.533 37.467s37.467 55.2 37.467 90.533v597.333c0 35.333-14.4 67.467-37.467 90.533s-55.2 37.467-90.533 37.467h-85.333v42.667c0 23.6-19.067 42.667-42.667 42.667s-42.667-19.067-42.667-42.667v-42.667h-256v42.667c0 23.6-19.067 42.667-42.667 42.667s-42.667-19.067-42.667-42.667zM853.333 554.667h-682.667v128c0 11.733 4.8 22.4 12.533 30.133s18.4 12.533 30.133 12.533h85.333v-42.667c0-23.6 19.067-42.667 42.667-42.667s42.667 19.067 42.667 42.667v42.667h256v-42.667c0-23.6 19.067-42.667 42.667-42.667s42.667 19.067 42.667 42.667v42.667h85.333c11.733 0 22.4-4.8 30.133-12.533s12.533-18.4 12.533-30.133v-128zM170.667 469.334h682.667v-384c0-11.733-4.8-22.4-12.533-30.133s-18.4-12.533-30.133-12.533h-597.333c-11.733 0-22.4 4.8-30.133 12.533s-12.533 18.4-12.533 30.133v384zM229.333 372.667h85.333v-85.333h-85.333v85.333zM386.267 372.667h85.333v-85.333h-85.333v85.333zM543.067 372.667h85.333v-85.333h-85.333v85.333zM700 372.667h85.333v-85.333h-85.333v85.333zM229.333 224.667h85.333v-85.333h-85.333v85.333zM386.267 224.667h85.333v-85.333h-85.333v85.333zM543.067 224.667h85.333v-85.333h-85.333v85.333zM700 224.667h85.333v-85.333h-85.333v85.333z" />
<glyph unicode="&#xe903;" glyph-name="font-bigger" data-tags="font-bigger" d="M876.8 37.467h-378.933v13.2c34.267 3.067 58 8.8 71.467 17.333 23.867 14.933 35.733 35.733 35.733 62.267 0 15.733-5.333 36.933-16.133 63.467l-65.2 160.4h-253.6l-30-79.6-14.4-35.733c-17.333-42.267-26-75.6-26-99.733 0-14.267 3.2-27.467 9.467-39.733 6.4-12.267 14.933-22.267 25.6-30 14.933-10.4 34.267-16.533 57.733-18.4v-13.2h-258.267v13.2c20.4 1.2 38.267 6.133 53.6 14.933s30.4 23.067 44.933 42.667c12.267 15.733 24.267 36 36 60.8s27.2 62 46.4 111.6l211.2 543.733h32.933l250.8-606.133c18.8-45.733 33.867-78.4 44.933-98 11.2-19.6 23.2-34.4 36.267-44.4 9.2-6.933 19.733-12.267 31.733-15.867 11.867-3.6 29.733-6.8 53.6-9.467l0.133-13.333zM514.667 377.734l-121.067 298.667-114.133-298.667h235.2zM958.267 728.267h-78.8v78.667h-40.4v-78.667h-78.667v-40.4h78.667v-78.8h40.4v78.8h78.8z" />
<glyph unicode="&#xe904;" glyph-name="volume" data-tags="volume" d="M595.081 901.169c-11.878 5.666-25.873 4.164-36.113-4.096l-332.049-265.626h-158.652c-37.615 0-68.267-30.652-68.267-68.267v-273.067c0-37.683 30.652-68.267 68.267-68.267h158.652l331.981-265.626c6.212-4.915 13.79-7.441 21.367-7.441 5.052 0 10.103 1.161 14.814 3.413 11.81 5.666 19.319 17.613 19.319 30.72v887.467c0 13.107-7.509 25.054-19.319 30.788zM787.183 668.039c-13.449 13.244-35.021 13.039-48.265-0.273-13.244-13.449-13.107-35.021 0.273-48.333 51.61-50.927 80.009-119.398 80.009-192.785s-28.399-141.858-80.009-192.785c-13.38-13.175-13.517-34.816-0.273-48.265 6.69-6.758 15.497-10.103 24.235-10.103 8.67 0 17.34 3.277 24.030 9.899 64.717 63.693 100.284 149.436 100.284 241.254s-35.567 177.562-100.284 241.391zM883.507 764.226c-13.449 13.312-35.021 13.175-48.333-0.205-13.244-13.38-13.107-35.021 0.205-48.265 77.619-76.937 120.354-179.61 120.354-289.109s-42.735-212.105-120.354-289.041c-13.312-13.312-13.449-34.953-0.205-48.333 6.758-6.69 15.497-10.035 24.235-10.035 8.67 0 17.408 3.277 24.098 9.899 90.658 89.771 140.493 209.647 140.493 337.51s-49.835 247.74-140.493 337.579z" />
<glyph unicode="&#xe905;" glyph-name="next" data-tags="next" horiz-adv-x="829" d="M0-60.399v974.419c0 19.775 22.354 31.525 38.69 20.348l714.765-487.21c14.33-9.744 14.33-30.952 0-40.696l-714.765-487.21c-16.336-11.177-38.69 0.573-38.69 20.348zM764.059 938.667h65.917v-1024h-65.917v1024z" />
<glyph unicode="&#xe906;" glyph-name="pause" data-tags="pause" horiz-adv-x="764" d="M57.319 938.667h213.512v-1024h-213.512v1024zM513.29 938.667h213.512v-1024h-213.512v1024z" />
<glyph unicode="&#xe907;" glyph-name="9" data-tags="9" horiz-adv-x="680" d="M302.035-85.333c-34.807 0-70.737 3.368-106.667 10.105-37.053 6.737-70.737 17.965-102.175 31.439l-4.491 2.246 24.702 153.825 6.737-2.246c29.193-11.228 57.263-19.088 85.333-24.702s60.632-7.86 96.561-7.86c49.404 0 90.947 19.088 122.386 56.14s47.158 90.947 47.158 161.684v33.684c-20.211-22.456-43.789-40.421-70.737-52.772-31.439-14.596-65.123-22.456-101.053-22.456-93.193 0-167.298 30.316-220.070 92.070-52.772 58.386-79.719 141.474-79.719 244.772 0 98.807 31.439 183.018 95.439 249.263 62.877 65.123 143.719 98.807 241.404 98.807 101.053 0 185.263-35.93 248.14-105.544s95.439-169.544 95.439-295.298v-232.421c0-120.14-35.93-216.702-106.667-286.316s-161.684-104.421-271.719-104.421zM101.053-34.807c29.193-12.351 61.754-22.456 95.439-29.193 35.93-6.737 70.737-10.105 104.421-10.105 106.667 0 195.368 33.684 263.86 101.053s103.298 160.561 103.298 278.456v232.421c0 123.509-31.439 220.070-92.070 288.561-60.632 66.246-141.474 101.053-239.158 101.053-94.316 0-172.912-32.561-233.544-96.561-60.632-62.877-92.070-144.842-92.070-240.281 0-99.93 25.825-180.772 77.474-239.158s122.386-87.579 212.211-87.579c33.684 0 66.246 6.737 96.561 21.333 29.193 13.474 55.018 34.807 76.351 61.754l10.105 12.351v-65.123c0-72.982-16.842-129.123-50.526-168.421s-77.474-59.509-131.368-59.509c-35.93 0-69.614 2.246-97.684 7.86-26.947 4.491-53.895 12.351-81.965 22.456l-21.333-131.368zM333.474 397.474c-43.789 0-77.474 17.965-102.175 53.895-23.579 34.807-34.807 81.965-34.807 139.228 0 53.895 13.474 101.053 38.175 138.105 25.825 38.175 60.632 58.386 102.175 58.386 44.912 0 80.842-20.211 107.789-58.386 25.825-38.175 39.298-94.316 39.298-167.298v-92.070l-1.123-1.123c-15.719-21.333-35.93-38.175-60.632-50.526-25.825-14.596-55.018-20.211-88.702-20.211zM336.842 774.737c-38.175 0-68.491-16.842-92.070-52.772-24.702-35.93-37.053-80.842-37.053-132.491 0-55.018 11.228-98.807 33.684-132.491 21.333-32.561 51.649-49.404 92.070-49.404 31.439 0 59.509 5.614 83.088 17.965 22.456 11.228 41.544 26.947 56.14 46.035v88.702c0 70.737-12.351 124.632-37.053 161.684-24.702 35.93-57.263 52.772-98.807 52.772z" />
<glyph unicode="&#xe908;" glyph-name="8" data-tags="8" horiz-adv-x="683" d="M342.456-85.333c-101.053 0-184.14 24.702-247.018 74.105s-95.439 122.386-95.439 214.456c0 53.895 15.719 103.298 46.035 144.842 28.070 38.175 67.368 69.614 115.649 92.070-41.544 21.333-75.228 49.404-98.807 85.333-26.947 37.053-40.421 81.965-40.421 132.491 0 88.702 29.193 158.316 87.579 207.719 58.386 48.281 135.86 72.982 231.298 72.982 94.316 0 171.789-24.702 230.175-72.982 58.386-49.404 88.702-119.018 88.702-207.719 0-50.526-13.474-95.439-40.421-133.614-24.702-35.93-57.263-64-98.807-85.333 48.281-22.456 86.456-52.772 114.526-92.070 30.316-41.544 46.035-89.825 46.035-143.719 0-92.070-31.439-165.053-94.316-214.456-61.754-49.404-144.842-74.105-244.772-74.105zM341.333 927.439c-92.070 0-167.298-23.579-223.439-70.737-55.018-47.158-84.211-113.404-84.211-198.737 0-48.281 12.351-90.947 37.053-126.877 24.702-37.053 60.632-65.123 105.544-86.456l11.228-5.614-11.228-4.491c-51.649-22.456-92.070-53.895-121.263-93.193-29.193-40.421-43.789-86.456-43.789-138.105 0-88.702 30.316-158.316 90.947-205.474 60.632-48.281 141.474-71.86 240.281-71.86 97.684 0 178.526 24.702 239.158 71.86s90.947 116.772 90.947 205.474c0 51.649-14.596 97.684-43.789 136.982-29.193 40.421-70.737 70.737-121.263 93.193l-11.228 4.491 11.228 5.614c44.912 20.211 79.719 49.404 104.421 86.456s38.175 79.719 38.175 126.877c0 85.333-28.070 152.702-84.211 198.737-58.386 48.281-133.614 71.86-224.561 71.86zM342.456 66.246c-43.789 0-78.596 13.474-104.421 40.421s-39.298 64-39.298 110.035c0 44.912 13.474 81.965 39.298 110.035s60.632 41.544 103.298 41.544c42.667 0 77.474-13.474 104.421-41.544 26.947-26.947 40.421-64 40.421-110.035s-13.474-83.088-39.298-110.035c-26.947-26.947-61.754-40.421-104.421-40.421zM341.333 357.053c-39.298 0-71.86-12.351-95.439-38.175s-35.93-59.509-35.93-102.175c0-43.789 12.351-77.474 35.93-102.175s56.14-37.053 96.561-37.053c39.298 0 71.86 12.351 95.439 37.053s35.93 59.509 35.93 102.175c0 42.667-12.351 76.351-37.053 102.175-23.579 25.825-56.14 38.175-95.439 38.175zM342.456 509.755c-38.175 0-68.491 12.351-89.825 38.175-21.333 24.702-32.561 59.509-32.561 101.053s11.228 75.228 31.439 99.93c21.333 24.702 51.649 37.053 88.702 37.053s67.368-12.351 88.702-38.175c21.333-24.702 32.561-58.386 32.561-99.93 0-42.667-11.228-76.351-32.561-101.053-19.088-24.702-49.404-37.053-86.456-37.053zM341.333 774.737c-33.684 0-61.754-11.228-79.719-33.684-19.088-22.456-29.193-53.895-29.193-93.193s10.105-70.737 29.193-94.316c19.088-22.456 47.158-33.684 80.842-33.684s60.632 11.228 79.719 33.684c19.088 22.456 29.193 55.018 29.193 94.316 0 38.175-10.105 69.614-30.316 92.070-19.088 23.579-46.035 34.807-79.719 34.807z" />
<glyph unicode="&#xe909;" glyph-name="7" data-tags="7" horiz-adv-x="727" d="M409.831-85.333h-214.728l10.39 109.673c16.162 148.924 49.641 287.459 101.592 412.14 50.796 120.063 120.063 232.045 206.647 333.637h-513.732v168.55h727.306v-163.932l-1.154-1.154c-107.364-126.99-182.404-245.899-221.655-354.417s-68.113-242.435-85.43-395.977l-9.236-108.519zM207.802-73.788h191.639l9.236 98.129c17.317 154.697 46.178 289.768 85.43 399.441s114.291 229.736 221.655 355.572v147.77h-704.216v-145.461h527.585l-8.081-9.236c-90.047-103.901-161.623-218.192-212.419-341.718-51.95-123.526-85.43-260.906-101.592-408.676l-9.236-95.82z" />
<glyph unicode="&#xe90a;" glyph-name="6" data-tags="6" horiz-adv-x="695" d="M358.175-85.333c-105.544 0-192 35.93-258.246 107.789-66.246 70.737-99.93 170.667-99.93 296.421v192c0 130.246 38.175 234.667 113.404 312.14 75.228 76.351 171.789 115.649 287.439 115.649 37.053 0 71.86-3.368 103.298-10.105s64-17.965 95.439-31.439l4.491-2.246-38.175-154.947-4.491 2.246c-29.193 10.105-56.14 17.965-78.596 23.579s-49.404 7.86-79.719 7.86c-58.386 0-105.544-22.456-140.351-65.123-33.684-42.667-50.526-101.053-49.404-175.158 21.333 20.211 47.158 35.93 78.596 48.281 34.807 13.474 72.982 20.211 116.772 20.211 89.825 0 160.561-32.561 211.088-95.439s76.351-144.842 76.351-242.526c0-99.93-31.439-184.14-94.316-249.263-62.877-67.368-144.842-99.93-243.649-99.93zM400.842 927.439c-112.281 0-206.596-38.175-279.579-112.281-72.982-75.228-110.035-177.404-110.035-304.281v-192c0-122.386 32.561-220.070 96.561-289.684 64-68.491 148.211-104.421 250.386-104.421 95.439 0 175.158 31.439 234.667 95.439 60.632 62.877 90.947 144.842 90.947 241.404 0 95.439-24.702 174.035-72.982 235.789-48.281 60.632-116.772 92.070-202.105 92.070-41.544 0-79.719-6.737-112.281-19.088s-60.632-30.316-81.965-52.772l-5.614-5.614-6.737 11.228v1.123c-2.246 80.842 14.596 144.842 51.649 189.754 37.053 46.035 87.579 69.614 148.211 69.614 31.439 0 58.386-2.246 81.965-7.86 21.333-4.491 47.158-12.351 74.105-21.333l32.561 133.614c-29.193 12.351-59.509 22.456-88.702 28.070-30.316 7.86-64 11.228-101.053 11.228zM358.175 66.246c-48.281 0-87.579 22.456-116.772 65.123s-43.789 104.421-43.789 183.018v67.368l1.123 1.123c14.596 21.333 34.807 38.175 61.754 49.404 25.825 12.351 58.386 17.965 95.439 17.965 42.667 0 78.596-17.965 104.421-52.772s38.175-79.719 38.175-135.86c0-53.895-12.351-99.93-38.175-138.105-25.825-37.053-59.509-57.263-102.175-57.263zM208.842 378.386v-64c0-76.351 13.474-135.86 41.544-176.281 26.947-40.421 62.877-60.632 107.789-60.632 39.298 0 69.614 16.842 93.193 52.772s35.93 80.842 35.93 131.368c0 52.772-12.351 96.561-35.93 129.123s-55.018 48.281-95.439 48.281c-35.93 0-66.246-5.614-90.947-16.842-23.579-10.105-42.667-25.825-56.14-43.789z" />
<glyph unicode="&#xe90b;" glyph-name="5" data-tags="5" horiz-adv-x="678" d="M335.644-85.333c-92.16 0-172.942 26.169-238.933 76.231-65.991 52.338-98.987 122.88-96.711 212.764v2.276l2.276 6.827 203.662 9.102v-5.689c0-42.098 12.516-76.231 36.409-100.124s55.751-35.271 94.436-35.271c45.511 0 77.369 15.929 98.987 46.649 21.618 31.858 31.858 73.956 31.858 126.293 0 55.751-11.378 101.262-34.133 135.396-22.756 32.996-55.751 50.062-101.262 50.062-37.547 0-65.991-6.827-85.333-20.48s-32.996-31.858-40.96-54.613l-1.138-4.551-187.733 12.516 59.164 566.613h567.751v-171.804h-393.671l-25.031-212.764c17.067 10.24 35.271 20.48 58.027 27.307 26.169 9.102 55.751 13.653 87.609 14.791 97.849 1.138 174.080-28.444 227.556-88.747s80.782-144.498 80.782-251.449c0-96.711-29.582-178.631-88.747-243.484s-144.498-97.849-254.862-97.849zM11.378 201.387c-2.276-84.196 29.582-152.462 92.16-200.249 63.716-48.924 142.222-73.956 232.107-73.956 106.951 0 188.871 31.858 245.76 93.298 56.889 62.578 85.333 141.084 85.333 235.52 0 103.538-26.169 186.596-77.369 244.622s-125.156 86.471-218.453 85.333c-30.72 0-59.164-4.551-84.196-13.653s-46.649-19.342-64.853-32.996l-10.24-7.964 29.582 248.036h392.533v147.911h-546.133l-56.889-544.996 166.116-11.378c9.102 23.893 23.893 42.098 44.373 55.751 21.618 14.791 52.338 22.756 91.022 22.756 48.924 0 85.333-18.204 110.364-54.613 22.756-35.271 35.271-81.92 35.271-141.084 0-54.613-11.378-98.987-34.133-133.12s-59.164-52.338-108.089-52.338c-42.098 0-76.231 13.653-102.4 38.684-25.031 25.031-38.684 59.164-39.822 102.4l-182.044-7.964z" />
<glyph unicode="&#xe90c;" glyph-name="4" data-tags="4" horiz-adv-x="750" d="M636.104-85.333h-213.574v219.346h-413.294l-9.236 129.299 1.154 1.154 421.375 674.201h213.574v-636.104h114.291v-168.55h-114.291v-219.346zM434.074-73.788h190.485v219.346h114.291v145.461h-114.291v636.104h-195.103l-417.912-667.274 8.081-114.291h413.294v-219.346zM434.074 291.019h-249.362l218.192 346.336 18.471 32.325 12.699-4.618v-374.043zM205.493 302.563h217.037v346.336l-9.236-16.162-207.802-330.174z" />
<glyph unicode="&#xe90d;" glyph-name="3" data-tags="3" horiz-adv-x="693" d="M336.842-85.333c-92.070 0-172.912 24.702-239.158 74.105-67.368 48.281-99.93 119.018-97.684 208.842v1.123l2.246 7.86h200.982v-5.614c0-35.93 13.474-66.246 38.175-88.702 25.825-23.579 59.509-34.807 98.807-34.807 43.789 0 78.596 12.351 104.421 35.93 24.702 23.579 38.175 57.263 38.175 98.807 0 49.404-12.351 86.456-37.053 110.035-24.702 22.456-61.754 34.807-111.158 34.807h-115.649v159.439h116.772c44.912 0 78.596 11.228 99.93 34.807s32.561 56.14 32.561 98.807c0 38.175-11.228 68.491-32.561 92.070-21.333 22.456-52.772 33.684-94.316 33.684-35.93 0-65.123-10.105-89.825-31.439-24.702-20.211-35.93-47.158-35.93-80.842v-5.614h-199.86l-3.368 8.982c-2.246 78.596 28.070 144.842 90.947 195.368 61.754 50.526 140.351 76.351 233.544 76.351 102.175 0 186.386-24.702 247.018-74.105 61.754-49.404 93.193-121.263 93.193-212.211 0-43.789-13.474-86.456-41.544-125.754-24.702-35.93-59.509-65.123-102.175-86.456 49.404-20.211 88.702-49.404 115.649-86.456 29.193-40.421 43.789-88.702 43.789-143.719 0-92.070-33.684-165.053-101.053-216.702-66.246-52.772-151.579-78.596-254.877-78.596zM11.228 196.492c-2.246-85.333 29.193-152.702 93.193-198.737 64-48.281 142.596-71.86 232.421-71.86 101.053 0 184.14 25.825 248.14 76.351s96.561 120.14 96.561 208.842c0 51.649-14.596 97.684-41.544 136.982-28.070 39.298-68.491 68.491-122.386 87.579l-13.474 4.491 12.351 4.491c46.035 21.333 83.088 50.526 108.912 88.702 25.825 37.053 39.298 77.474 39.298 119.018 0 87.579-30.316 156.070-88.702 204.351-58.386 46.035-139.228 70.737-239.158 70.737-89.825 0-166.175-24.702-226.807-74.105-59.509-48.281-88.702-110.035-86.456-184.14h181.895c1.123 33.684 14.596 62.877 39.298 84.211 25.825 22.456 58.386 33.684 96.561 33.684 43.789 0 78.596-12.351 102.175-37.053s34.807-58.386 34.807-98.807c0-44.912-12.351-80.842-34.807-106.667-23.579-25.825-59.509-38.175-107.789-38.175h-105.544v-136.982h105.544c51.649 0 92.070-12.351 119.018-37.053s40.421-65.123 40.421-117.895c0-44.912-13.474-80.842-41.544-106.667-26.947-25.825-65.123-39.298-112.281-39.298-42.667 0-78.596 12.351-106.667 38.175-26.947 24.702-41.544 55.018-42.667 92.070h-180.772z" />
<glyph unicode="&#xe90e;" glyph-name="folder" data-tags="folder" d="M981.333 128v469.333c0 35.328-14.379 67.413-37.504 90.496s-55.168 37.504-90.496 37.504h-361.173l-72.661 109.013c-7.765 11.52-20.736 18.987-35.499 18.987h-213.333c-35.328 0-67.413-14.379-90.496-37.504s-37.504-55.168-37.504-90.496v-597.333c0-35.328 14.379-67.413 37.504-90.496s55.168-37.504 90.496-37.504h682.667c35.328 0 67.413 14.379 90.496 37.504s37.504 55.168 37.504 90.496zM896 128c0-11.776-4.736-22.4-12.501-30.165s-18.389-12.501-30.165-12.501h-682.667c-11.776 0-22.4 4.736-30.165 12.501s-12.501 18.389-12.501 30.165v597.333c0 11.776 4.736 22.4 12.501 30.165s18.389 12.501 30.165 12.501h190.507l72.661-109.013c8.192-12.245 21.589-18.901 35.499-18.987h384c11.776 0 22.4-4.736 30.165-12.501s12.501-18.389 12.501-30.165z" />
<glyph unicode="&#xe90f;" glyph-name="printer" data-tags="printer" d="M725.333 597.334h-426.667v213.333h426.667zM213.333 128v-128c0-23.552 19.115-42.667 42.667-42.667h512c23.552 0 42.667 19.115 42.667 42.667v128h42.667c35.328 0 67.413 14.379 90.496 37.504s37.504 55.168 37.504 90.496v213.333c0 35.328-14.379 67.413-37.504 90.496s-55.168 37.504-90.496 37.504h-42.667v256c0 23.552-19.115 42.667-42.667 42.667h-512c-23.552 0-42.667-19.115-42.667-42.667v-256h-42.667c-35.328 0-67.413-14.379-90.496-37.504s-37.504-55.168-37.504-90.496v-213.333c0-35.328 14.379-67.413 37.504-90.496s55.168-37.504 90.496-37.504zM256 384c-23.552 0-42.667-19.115-42.667-42.667v-128h-42.667c-11.776 0-22.4 4.736-30.165 12.501s-12.501 18.389-12.501 30.165v213.333c0 11.776 4.736 22.4 12.501 30.165s18.389 12.501 30.165 12.501h682.667c11.776 0 22.4-4.736 30.165-12.501s12.501-18.389 12.501-30.165v-213.333c0-11.776-4.736-22.4-12.501-30.165s-18.389-12.501-30.165-12.501h-42.667v128c0 23.552-19.115 42.667-42.667 42.667zM298.667 298.667h426.667v-256h-426.667z" />
<glyph unicode="&#xe910;" glyph-name="share" data-tags="share-2" d="M691.797 166.486c1.067 1.408 2.048 2.859 2.987 4.437 0.853 1.493 1.621 3.029 2.304 4.565 3.115 4.608 6.656 8.917 10.581 12.843 15.488 15.488 36.736 25.003 60.331 25.003s44.843-9.515 60.331-25.003 25.003-36.736 25.003-60.331-9.515-44.843-25.003-60.331-36.736-25.003-60.331-25.003-44.843 9.515-60.331 25.003-25.003 36.736-25.003 60.331c0 13.867 3.285 26.923 9.131 38.485zM695.509 680.278c-0.384 0.725-0.768 1.451-1.195 2.176s-0.853 1.451-1.323 2.133c-6.571 12.075-10.325 25.941-10.325 40.747 0 23.595 9.515 44.843 25.003 60.331s36.736 25.003 60.331 25.003 44.843-9.515 60.331-25.003 25.003-36.736 25.003-60.331-9.515-44.843-25.003-60.331-36.736-25.003-60.331-25.003-44.843 9.515-60.331 25.003c-4.608 4.608-8.704 9.728-12.16 15.275zM328.491 471.723c0.384-0.725 0.768-1.451 1.195-2.176s0.853-1.451 1.323-2.133c6.571-12.075 10.325-25.941 10.325-40.747s-3.755-28.672-10.368-40.789c-0.469-0.683-0.896-1.408-1.323-2.133s-0.811-1.408-1.152-2.133c-3.456-5.547-7.552-10.667-12.16-15.275-15.488-15.488-36.736-25.003-60.331-25.003s-44.843 9.515-60.331 25.003-25.003 36.736-25.003 60.331 9.515 44.843 25.003 60.331 36.736 25.003 60.331 25.003 44.843-9.515 60.331-25.003c4.608-4.608 8.704-9.728 12.16-15.275zM603.733 678.912l-226.475-132.139c-0.171 0.213-0.384 0.384-0.597 0.597-30.805 30.805-73.557 49.963-120.661 49.963s-89.856-19.157-120.661-50.005-50.005-73.557-50.005-120.661 19.157-89.856 50.005-120.661 73.557-50.005 120.661-50.005 89.856 19.157 120.661 50.005c0.213 0.213 0.384 0.384 0.597 0.597l226.517-132.011c-4.181-14.805-6.443-30.464-6.443-46.592 0-47.104 19.157-89.856 50.005-120.661s73.557-50.005 120.661-50.005 89.856 19.157 120.661 50.005 50.005 73.557 50.005 120.661-19.157 89.856-50.005 120.661-73.557 50.005-120.661 50.005-89.856-19.157-120.661-50.005c-0.128-0.128-0.299-0.299-0.427-0.427l-226.645 132.053c4.181 14.763 6.4 30.293 6.4 46.379s-2.219 31.659-6.4 46.421l226.475 132.181c0.171-0.213 0.384-0.384 0.597-0.597 30.805-30.848 73.557-50.005 120.661-50.005s89.856 19.157 120.661 50.005 50.005 73.557 50.005 120.661-19.157 89.856-50.005 120.661-73.557 50.005-120.661 50.005-89.856-19.157-120.661-50.005-50.005-73.557-50.005-120.661c0-16.085 2.219-31.659 6.4-46.421z" />
<glyph unicode="&#xe911;" glyph-name="external-link" data-tags="external-link" d="M725.333 384v-256c0-11.776-4.736-22.4-12.501-30.165s-18.389-12.501-30.165-12.501h-469.333c-11.776 0-22.4 4.736-30.165 12.501s-12.501 18.389-12.501 30.165v469.333c0 11.776 4.736 22.4 12.501 30.165s18.389 12.501 30.165 12.501h256c23.552 0 42.667 19.115 42.667 42.667s-19.115 42.667-42.667 42.667h-256c-35.328 0-67.413-14.379-90.496-37.504s-37.504-55.168-37.504-90.496v-469.333c0-35.328 14.379-67.413 37.504-90.496s55.168-37.504 90.496-37.504h469.333c35.328 0 67.413 14.379 90.496 37.504s37.504 55.168 37.504 90.496v256c0 23.552-19.115 42.667-42.667 42.667s-42.667-19.115-42.667-42.667zM456.832 311.168l396.501 396.501v-153.003c0-23.552 19.115-42.667 42.667-42.667s42.667 19.115 42.667 42.667v256c0 5.803-1.152 11.307-3.243 16.341s-5.163 9.728-9.216 13.781c-0.043 0.043-0.043 0.043-0.085 0.085-3.925 3.925-8.619 7.083-13.781 9.216-5.035 2.091-10.539 3.243-16.341 3.243h-256c-23.552 0-42.667-19.115-42.667-42.667s19.115-42.667 42.667-42.667h153.003l-396.501-396.501c-16.683-16.683-16.683-43.691 0-60.331s43.691-16.683 60.331 0z" />
<glyph unicode="&#xe912;" glyph-name="message-square" data-tags="message-square" d="M938.667 298.667v426.667c0 35.328-14.379 67.413-37.504 90.496s-55.168 37.504-90.496 37.504h-597.333c-35.328 0-67.413-14.379-90.496-37.504s-37.504-55.168-37.504-90.496v-682.667c0-10.923 4.181-21.845 12.501-30.165 16.683-16.683 43.691-16.683 60.331 0l158.165 158.165h494.336c35.328 0 67.413 14.379 90.496 37.504s37.504 55.168 37.504 90.496zM853.333 298.667c0-11.776-4.736-22.4-12.501-30.165s-18.389-12.501-30.165-12.501h-512c-11.776 0-22.443-4.779-30.165-12.501l-97.835-97.835v579.669c0 11.776 4.736 22.4 12.501 30.165s18.389 12.501 30.165 12.501h597.333c11.776 0 22.4-4.736 30.165-12.501s12.501-18.389 12.501-30.165z" />
<glyph unicode="&#xe913;" glyph-name="plus" data-tags="plus" d="M213.333 384h256v-256c0-23.552 19.115-42.667 42.667-42.667s42.667 19.115 42.667 42.667v256h256c23.552 0 42.667 19.115 42.667 42.667s-19.115 42.667-42.667 42.667h-256v256c0 23.552-19.115 42.667-42.667 42.667s-42.667-19.115-42.667-42.667v-256h-256c-23.552 0-42.667-19.115-42.667-42.667s19.115-42.667 42.667-42.667z" />
<glyph unicode="&#xe914;" glyph-name="chevron-down" data-tags="chevron-down" d="M225.835 524.502l256-256c16.683-16.683 43.691-16.683 60.331 0l256 256c16.683 16.683 16.683 43.691 0 60.331s-43.691 16.683-60.331 0l-225.835-225.835-225.835 225.835c-16.683 16.683-43.691 16.683-60.331 0s-16.683-43.691 0-60.331z" />
<glyph unicode="&#xe915;" glyph-name="arrow-right-circle" data-tags="arrow-right-circle" d="M981.333 426.667c0 129.6-52.533 246.933-137.467 331.867s-202.267 137.467-331.867 137.467-246.933-52.533-331.867-137.467-137.467-202.267-137.467-331.867 52.533-246.933 137.467-331.867 202.267-137.467 331.867-137.467 246.933 52.533 331.867 137.467 137.467 202.267 137.467 331.867zM896 426.667c0-106.133-42.933-202-112.533-271.467s-165.333-112.533-271.467-112.533-202 42.933-271.467 112.533-112.533 165.333-112.533 271.467 42.933 202 112.533 271.467 165.333 112.533 271.467 112.533 202-42.933 271.467-112.533 112.533-165.333 112.533-271.467zM558.933 424.667l-138.4-138.533c-16.667-16.667-16.667-43.733 0-60.267s43.733-16.667 60.267 0l170.667 170.667c4.133 4.133 7.2 8.8 9.2 13.867s3.2 10.533 3.2 16.4c0 5.6-1.067 11.2-3.2 16.4-2.133 5.067-5.2 9.733-9.2 13.867l-170.667 170.667c-16.667 16.667-43.733 16.667-60.267 0-16.667-16.667-16.667-43.733 0-60.267l138.133-141.467 0.267-1.333z" />
<glyph unicode="&#xe916;" glyph-name="plus-circle" data-tags="plus-circle" d="M981.333 426.667c0 129.579-52.565 246.997-137.472 331.861s-202.283 137.472-331.861 137.472-246.997-52.565-331.861-137.472-137.472-202.283-137.472-331.861 52.565-246.997 137.472-331.861 202.283-137.472 331.861-137.472 246.997 52.565 331.861 137.472 137.472 202.283 137.472 331.861zM896 426.667c0-106.069-42.923-201.984-112.469-271.531s-165.461-112.469-271.531-112.469-201.984 42.923-271.531 112.469-112.469 165.461-112.469 271.531 42.923 201.984 112.469 271.531 165.461 112.469 271.531 112.469 201.984-42.923 271.531-112.469 112.469-165.461 112.469-271.531zM341.333 384h128v-128c0-23.552 19.115-42.667 42.667-42.667s42.667 19.115 42.667 42.667v128h128c23.552 0 42.667 19.115 42.667 42.667s-19.115 42.667-42.667 42.667h-128v128c0 23.552-19.115 42.667-42.667 42.667s-42.667-19.115-42.667-42.667v-128h-128c-23.552 0-42.667-19.115-42.667-42.667s19.115-42.667 42.667-42.667z" />
<glyph unicode="&#xe917;" glyph-name="facebook" data-tags="facebook" horiz-adv-x="566" d="M565.746 763.286h-158.409c-16.972 0-39.602-22.63-39.602-56.575v-118.807h198.011v-169.724h-198.011v-503.514h-192.354v503.514h-175.381v169.724h175.381v96.177c0 141.436 96.177 254.586 231.956 254.586h158.409v-175.381z" />
<glyph unicode="&#xe918;" glyph-name="linkedin" data-tags="linkedin" horiz-adv-x="1038" d="M235.243 827.964c0-62.27-48.432-110.703-117.622-110.703s-117.622 48.432-117.622 110.703c0 62.27 48.432 110.703 117.622 110.703s117.622-48.432 117.622-110.703zM6.919-85.333v712.649h221.405v-712.649h-221.405zM359.784 405.91c0 89.946 0 166.054-6.919 228.324h193.73l6.919-103.784h6.919c27.676 48.432 103.784 117.622 221.405 117.622 145.297 0 256-96.865 256-304.432v-422.054h-221.405v387.459c0 89.946-34.595 152.216-110.703 152.216-62.27 6.919-103.784-34.595-117.622-76.108-6.919-13.838-6.919-34.595-6.919-55.351v-408.216h-221.405v484.324z" />
<glyph unicode="&#xe919;" glyph-name="twitter" data-tags="twitter" horiz-adv-x="1259" d="M1259.243 814.126c-48.432-20.757-96.865-34.595-145.297-41.514 55.351 34.595 96.865 83.027 110.703 145.297-48.432-27.676-103.784-48.432-166.054-62.27-41.514 48.432-110.703 83.027-186.811 83.027-145.297 0-256-117.622-256-256 0-20.757 0-41.514 6.919-62.27-214.486 13.838-408.216 117.622-532.757 269.838-27.676-34.595-34.595-83.027-34.595-131.459 0-89.946 48.432-166.054 117.622-214.486-41.514 0-83.027 13.838-117.622 34.595 0 0 0 0 0 0 0-124.541 89.946-228.324 207.568-256-27.676-6.919-48.432-6.919-76.108-6.919-13.838 0-27.676 0-48.432 0 34.595-103.784 131.459-179.892 242.162-179.892-89.946-69.189-200.649-110.703-318.27-110.703-20.757 0-41.514 0-62.27 6.919 117.622-76.108 249.081-117.622 394.378-117.622 477.405 0 733.405 394.378 733.405 733.405 0 13.838 0 20.757 0 34.595 55.351 34.595 96.865 83.027 131.459 131.459z" />
<glyph unicode="&#xe91a;" glyph-name="home" data-tags="home" horiz-adv-x="939" d="M470.53 938.064c-9.57 0-17.545-3.19-25.52-9.57l-433.844-433.844c-14.355-14.355-14.355-36.685 0-49.445 14.355-14.355 36.685-14.355 49.445 0 0 0 0 0 0 0l408.324 408.324 408.324-408.324c14.355-14.355 36.685-14.355 49.445 0 14.355 14.355 14.355 36.685 0 49.445 0 0 0 0 0 0l-105.271 105.271c0 1.595 0 3.19 0 4.785v177.047c0 19.14-15.95 35.090-35.090 35.090 0 0 0 0-1.595 0-19.14 0-35.090-15.95-35.090-35.090v-111.651l-258.393 258.393c-3.19 6.38-11.165 9.57-20.735 9.57zM86.131 375.023c-19.14 0-35.090-15.95-35.090-35.090v-390.779c0-19.14 15.95-35.090 35.090-35.090h767.202c19.14 0 35.090 15.95 35.090 35.090v390.779c0 19.14-15.95 35.090-35.090 36.685-19.14 0-35.090-15.95-36.685-35.090 0 0 0 0 0-1.595v-355.688h-693.832v355.688c0 19.14-15.95 35.090-36.685 35.090 1.595 0 0 0 0 0z" />
<glyph unicode="&#xe91b;" glyph-name="mail" data-tags="mail" d="M128 600.704l359.552-251.691c14.507-10.027 33.92-10.496 48.939 0l359.509 251.691v-430.037c0-11.605-4.693-22.229-12.587-30.080s-18.475-12.587-30.080-12.587h-682.667c-11.605 0-22.229 4.693-30.080 12.587s-12.587 18.475-12.587 30.080zM42.667 682.155v-511.488c0-35.328 14.507-67.371 37.547-90.453s55.125-37.547 90.453-37.547h682.667c35.328 0 67.371 14.507 90.453 37.547s37.547 55.125 37.547 90.453v511.488c0 0.427 0 0.853 0 1.28-0.213 35.029-14.635 66.773-37.547 89.685-23.083 23.040-55.125 37.547-90.453 37.547h-682.667c-35.328 0-67.371-14.507-90.453-37.547-22.912-22.912-37.333-54.656-37.547-89.728 0-0.213 0-0.469 0-0.725zM891.477 701.696l-379.477-265.6-379.477 265.6c2.048 4.096 4.779 7.808 8.021 11.051 7.893 7.893 18.517 12.587 30.123 12.587h682.667c11.605 0 22.229-4.693 30.080-12.587 3.243-3.243 5.973-6.997 8.021-11.051z" />
<glyph unicode="&#xe91c;" glyph-name="2" data-tags="2" horiz-adv-x="709" d="M708.836-85.333h-692.907v138.809l1.138 1.138 323.129 345.884c45.511 52.338 79.644 97.849 98.987 134.258 19.342 35.271 28.444 69.404 28.444 100.124 0 40.96-11.378 73.956-32.996 98.987s-52.338 37.547-92.16 37.547c-44.373 0-78.507-14.791-100.124-44.373-22.756-29.582-35.271-70.542-35.271-121.742v-5.689h-204.8l-2.276 11.378c-2.276 91.022 28.444 169.529 89.884 233.244 62.578 62.578 147.911 94.436 252.587 94.436 103.538 0 186.596-27.307 245.76-81.92s89.884-127.431 89.884-218.453c0-61.44-17.067-118.329-50.062-169.529s-88.747-118.329-164.978-201.387l-171.804-186.596h416.427v-166.116zM27.307-73.955h670.151v143.36h-417.564l-4.551 10.24 179.769 195.698c76.231 81.92 130.844 149.049 163.84 200.249 31.858 50.062 48.924 104.676 48.924 163.84 0 86.471-28.444 157.013-86.471 209.351-56.889 52.338-137.671 78.507-238.933 78.507-102.4 0-184.32-30.72-244.622-92.16-59.164-60.302-88.747-135.396-86.471-223.004h184.32c1.138 50.062 13.653 92.16 37.547 122.88 25.031 32.996 61.44 48.924 109.227 48.924 43.236 0 77.369-13.653 100.124-42.098 23.893-27.307 35.271-63.716 35.271-106.951 0-31.858-10.24-68.267-29.582-104.676-19.342-37.547-53.476-83.058-100.124-136.533l-320.853-344.747v-122.88z" />
<glyph unicode="&#xe91d;" glyph-name="1" data-tags="1" horiz-adv-x="420" d="M419.748-85.333h-214.486v832.577h-205.261v154.523l419.748 36.901v-1024zM216.793-73.801h191.423v999.784l-396.685-34.595v-132.613h205.261v-832.577z" />
<glyph unicode="&#xe91e;" glyph-name="0" data-tags="0" horiz-adv-x="677" d="M340.211-85.333c-104.421 0-187.509 34.807-248.14 103.298-61.754 67.368-92.070 168.421-92.070 299.789v216.702c0 131.368 30.316 232.421 90.947 300.912s143.719 103.298 247.018 103.298c103.298 0 186.386-34.807 247.018-103.298s92.070-169.544 92.070-299.789v-216.702c0-131.368-30.316-232.421-90.947-299.789-60.632-70.737-143.719-104.421-245.895-104.421zM337.965 927.439c-99.93 0-179.649-33.684-238.035-99.93-59.509-66.246-88.702-165.053-88.702-293.053v-216.702c0-128 30.316-226.807 88.702-293.053s139.228-98.807 240.281-98.807c99.93 0 179.649 33.684 238.035 98.807 58.386 66.246 88.702 165.053 88.702 293.053v216.702c0 128-30.316 226.807-88.702 293.053-59.509 66.246-140.351 99.93-240.281 99.93zM340.211 66.246c-47.158 0-83.088 19.088-106.667 56.14s-35.93 96.561-35.93 176.281v256c0 78.596 12.351 138.105 35.93 175.158s59.509 56.14 106.667 56.14c46.035 0 81.965-19.088 106.667-57.263 23.579-37.053 35.93-95.439 35.93-174.035v-256c0-79.719-12.351-139.228-35.93-176.281-25.825-37.053-60.632-56.14-106.667-56.14zM337.965 774.737c-42.667 0-74.105-16.842-96.561-51.649s-33.684-92.070-33.684-168.421v-256c0-77.474 11.228-134.737 33.684-169.544s53.895-51.649 97.684-51.649c42.667 0 74.105 16.842 96.561 51.649s33.684 92.070 33.684 169.544v256c0 76.351-11.228 133.614-34.807 168.421-22.456 34.807-53.895 51.649-96.561 51.649z" />
<glyph unicode="&#xe91f;" glyph-name="font-smaller" data-tags="font-smaller" d="M732.4 61.6h-314v10.933c28.4 2.533 48.133 7.333 59.2 14.4 19.733 12.4 29.6 29.6 29.6 51.6 0 13.067-4.4 30.533-13.333 52.533l-8.133 20.133-45.867 112.8h-210.267l-24.8-66-12-29.6c-14.4-35.067-21.467-62.667-21.467-82.667 0-11.733 2.667-22.8 7.867-32.933 5.2-10.267 12.4-18.533 21.2-24.8 12.4-8.667 28.4-13.733 47.733-15.333v-10.933h-214v10.933c16.933 0.933 31.733 5.067 44.4 12.4 12.8 7.333 25.2 19.067 37.333 35.333 10.133 13.067 20.133 29.867 29.867 50.4s22.533 51.333 38.533 92.533l174.933 450.667h27.2l207.867-502.267c15.6-37.867 28-64.933 37.333-81.2 9.2-16.267 19.333-28.533 30.133-36.8 7.6-5.733 16.4-10.133 26.267-13.2s24.667-5.6 44.4-7.867v-11.067zM432.267 343.6l-100.4 247.6-94.667-247.6h195.067zM760.4 669.6v40.4h197.867v-40.4h-197.867z" />
<glyph unicode="&#xe920;" glyph-name="close" data-tags="x" d="M225.835 652.502l225.835-225.835-225.835-225.835c-16.683-16.683-16.683-43.691 0-60.331s43.691-16.683 60.331 0l225.835 225.835 225.835-225.835c16.683-16.683 43.691-16.683 60.331 0s16.683 43.691 0 60.331l-225.835 225.835 225.835 225.835c16.683 16.683 16.683 43.691 0 60.331s-43.691 16.683-60.331 0l-225.835-225.835-225.835 225.835c-16.683 16.683-43.691 16.683-60.331 0s-16.683-43.691 0-60.331z" />
<glyph unicode="&#xe921;" glyph-name="google-plus" data-tags="google-plus" horiz-adv-x="1755" d="M511.907 499.836v-175.532h290.446c-11.715-75.308-87.766-220.903-290.446-220.903-174.788 0-317.408 144.665-317.408 323.359 0 178.507 142.62 323.359 317.408 323.359 99.481 0 166.049-42.395 203.982-79.027l138.901 133.881c-89.254 83.303-204.726 133.881-343.069 133.881-282.823-0.186-511.721-229.084-511.721-512.093s228.898-511.907 511.907-511.907c295.467 0 491.639 207.701 491.639 500.192 0 33.656-3.719 59.317-8.182 84.791 0 0-483.457 0-483.457 0zM1755.322 353.498h-219.415v-219.415h-146.339v219.415h-219.415v146.339h219.415v219.415h146.339v-219.415h219.415v-146.339z" />
<glyph unicode="&#xe922;" glyph-name="quote" data-tags="quote" horiz-adv-x="1322" d="M0 938.667h599.618v-504.019l-413.105-519.981h-186.513zM722.456 938.667h599.618v-504.019l-413.105-519.981h-186.513z" />
<glyph unicode="&#xe923;" glyph-name="rss" data-tags="rss" horiz-adv-x="1016" d="M139.733 194.134c-38.4 0-71.067-13.467-98-40.4-26.933-26.8-40.4-59.467-40.4-97.867s13.467-71.067 40.4-98c26.933-26.933 59.6-40.4 98-40.4s71.067 13.467 98 40.4c26.933 26.933 40.4 59.6 40.4 98s-13.467 71.067-40.4 98c-26.933 26.8-59.6 40.267-98 40.267zM458.133 374.267c-54.267 54.8-116.533 98.4-186.667 130.8s-143.6 51.733-220.533 58h-3.6c-12.533 0-22.8-4.133-30.933-12.267-10-8.667-15.067-19.867-15.067-33.867v-97.333c0-12 4-22.4 11.867-30.933 7.867-8.667 17.867-13.467 29.867-14.4 110-10.533 204-54.933 282.133-132.933 78-78 122.4-172.133 132.933-282.133 0.933-12 5.733-22 14.4-29.867 8.667-8 18.933-11.867 30.933-11.867h97.333c13.867 0 25.2 5.067 33.867 15.067 9.2 9.6 13.2 21.2 12.267 34.533-6.267 76.8-25.6 150.4-58 220.533s-76 132.4-130.8 186.667zM929.333 327.067c-51.333 115.067-122 217.2-211.867 306.533-89.333 89.867-191.6 160.4-306.533 211.867-115.067 51.467-235.467 80.267-361.333 86.533h-2.133c-12.533 0-23.067-4.267-31.733-12.933-9.6-8.667-14.4-19.733-14.4-33.2v-103.067c0-12 4.267-22.4 12.667-31.333s18.667-13.6 30.667-14c103.333-6.267 201.333-30.8 294.4-73.467 92.933-42.8 173.6-98.4 242.133-166.8 68.4-68.4 124-149.2 166.8-242.133s67.067-191.067 72.8-294.267c0.533-12 5.2-22.267 14-30.667 8.933-8.4 19.6-12.667 32.133-12.667h103.067c13.467 0 24.533 4.8 33.2 14.4 9.6 9.6 13.867 20.933 12.933 33.867-6.533 125.867-35.333 246.267-86.8 361.333z" />
<glyph unicode="&#xe924;" glyph-name="minus" data-tags="minus" d="M213.333 384h597.333c23.552 0 42.667 19.115 42.667 42.667s-19.115 42.667-42.667 42.667h-597.333c-23.552 0-42.667-19.115-42.667-42.667s19.115-42.667 42.667-42.667z" />
<glyph unicode="&#xe925;" glyph-name="mail-solid" data-tags="mail-solid" horiz-adv-x="1583" d="M50.837 844.256c43.574-21.787 639.092-341.333 660.879-355.858s50.837-14.525 79.887-14.525c29.050 0 58.099 7.262 79.887 14.525 21.787 14.525 617.305 334.071 660.879 355.858s87.149 94.411 7.262 94.411h-1488.794c-79.887 0-43.574-72.624 0-94.411zM1554.156 669.958c-50.837-29.050-646.355-341.333-682.667-355.858-29.050-14.525-50.837-14.525-79.887-14.525s-50.837 0-79.887 14.525c-29.050 14.525-631.83 326.809-675.404 355.858-36.312 14.525-36.312-7.262-36.312-21.787s0-646.355 0-646.355c0-36.312 50.837-87.149 87.149-87.149h1408.908c36.312 0 87.149 50.837 87.149 87.149 0 0 0 631.83 0 646.355s0 36.312-29.050 21.787z" />
<glyph unicode="&#xe926;" glyph-name="star" data-tags="star" d="M514.107 938.667l139.062-391.901h370.831l-303.407-231.77 109.564-400.329-316.049 240.198-320.263-240.198 109.564 400.329-303.407 231.77h375.045z" />
<glyph unicode="&#xe927;" glyph-name="eye" data-tags="eye" horiz-adv-x="1827" d="M913.455 938.667c-599.273 0-913.455-442.182-913.455-512s314.182-512 913.455-512c599.273 0 913.455 442.182 913.455 512s-314.182 512-913.455 512zM913.455 36.849c-221.091 0-407.273 174.545-407.273 395.636s180.364 395.636 407.273 395.636 407.273-174.545 407.273-395.636-186.182-395.636-407.273-395.636zM913.455 426.667c-34.909 40.727 58.182 197.818 0 197.818-110.545 0-203.636-87.273-203.636-197.818s93.091-197.818 203.636-197.818c110.545 0 203.636 87.273 203.636 197.818 0 52.364-174.545-34.909-203.636 0z" />
<glyph unicode="&#xe928;" glyph-name="message" data-tags="message" horiz-adv-x="1380" d="M0 938.667v-894.38h978.633l155.544-129.62v129.62h246.278v894.38h-1380.456zM842.532 374.819h-648.101v84.253h648.101v-84.253zM1179.544 575.73h-972.152v77.772h972.152v-77.772z" />
<glyph unicode="&#xe929;" glyph-name="print" data-tags="print" horiz-adv-x="1181" d="M78.339 636.503h1024c33.574 0 27.978 39.169 11.191 44.765s-207.038 78.339-240.612 78.339h-55.956v179.060h-453.246v-179.060h-55.956c-33.574 0-223.825-72.743-240.612-78.339s-22.383-44.765 11.191-44.765zM1113.53 569.356h-1046.383c-33.574 0-67.148-39.169-67.148-72.743v-212.634c0-33.574 33.574-72.743 67.148-72.743h117.508l-50.361-302.164h917.683l-50.361 302.164h117.508c33.574 0 67.148 39.169 67.148 72.743v212.634c-5.596 33.574-39.169 72.743-72.743 72.743zM251.803 37.771l83.934 391.694h503.607l83.934-391.694h-671.475z" />
<glyph unicode="&#xe92a;" glyph-name="clock" data-tags="clock" d="M981.333 426.667c0 129.579-52.565 246.997-137.472 331.861s-202.283 137.472-331.861 137.472-246.997-52.565-331.861-137.472-137.472-202.283-137.472-331.861 52.565-246.997 137.472-331.861 202.283-137.472 331.861-137.472 246.997 52.565 331.861 137.472 137.472 202.283 137.472 331.861zM896 426.667c0-106.069-42.923-201.984-112.469-271.531s-165.461-112.469-271.531-112.469-201.984 42.923-271.531 112.469-112.469 165.461-112.469 271.531 42.923 201.984 112.469 271.531 165.461 112.469 271.531 112.469 201.984-42.923 271.531-112.469 112.469-165.461 112.469-271.531zM469.333 682.667v-256c0-16.597 9.472-31.019 23.595-38.144l170.667-85.333c21.077-10.539 46.72-2.005 57.259 19.072s2.005 46.72-19.072 57.259l-147.115 73.515v229.632c0 23.552-19.115 42.667-42.667 42.667s-42.667-19.115-42.667-42.667z" />
<glyph unicode="&#xe92b;" glyph-name="live" data-tags="live" d="M822.857 835.048c-18.286 12.19-36.571 24.381-54.857 36.571l-30.476-51.81c15.238-9.143 33.524-21.333 48.762-30.476l36.571 45.714zM956.952 499.81l60.952 9.143c-3.048 21.333-9.143 42.667-15.238 64l-57.905-15.238c6.095-18.286 9.143-39.619 12.19-57.905zM926.476 609.524l54.857 24.381c-9.143 18.286-18.286 39.619-30.476 57.905l-51.81-30.476c9.143-18.286 18.286-33.524 27.429-51.81zM865.524 707.048l48.762 36.571c-12.19 15.238-24.381 27.429-36.571 39.619l-6.095 6.095-42.667-42.667 6.095-6.095c9.143-9.143 21.333-21.333 30.476-33.524zM1024 444.953l-60.952-3.048c0-6.095 0-12.19 0-18.286 0-249.905-204.19-451.048-451.048-451.048s-451.048 204.19-451.048 454.095 204.19 451.048 451.048 451.048h3.048l3.048 3.048v-3.048c18.286 0 36.571-3.048 57.905-3.048l9.143 60.952c-21.333 0-42.667 3.048-64 3.048v-3.048l-3.048 3.048h-3.048c-286.476 0-515.048-228.571-515.048-512s228.571-512 512-512 512 228.571 512 512c0 6.095 0 12.19 0 18.286zM710.095 899.048c-21.333 9.143-39.619 15.238-60.952 21.333l-15.238-57.905c18.286-6.095 36.571-12.19 54.857-18.286l21.333 54.857zM481.524 822.857v-426.667h313.905v60.952h-252.952v365.714z" />
<glyph unicode="&#xe92c;" glyph-name="menu" data-tags="menu" d="M128 384h768c23.552 0 42.667 19.115 42.667 42.667s-19.115 42.667-42.667 42.667h-768c-23.552 0-42.667-19.115-42.667-42.667s19.115-42.667 42.667-42.667zM128 640h768c23.552 0 42.667 19.115 42.667 42.667s-19.115 42.667-42.667 42.667h-768c-23.552 0-42.667-19.115-42.667-42.667s19.115-42.667 42.667-42.667zM128 128h768c23.552 0 42.667 19.115 42.667 42.667s-19.115 42.667-42.667 42.667h-768c-23.552 0-42.667-19.115-42.667-42.667s19.115-42.667 42.667-42.667z" />
</font>
</defs>
</svg>
